<svg width="16" height="12" viewBox="0 0 16 12" fill="none" xmlns="http://www.w3.org/2000/svg">
<g id="Group">
<g id="Group_2">
<path id="Vector" d="M14 0.333333C13.26 0.1 12.4467 0 11.6667 0C10.3667 0 8.96669 0.266667 8.00002 1C7.03335 0.266667 5.63335 0 4.33335 0C3.03335 0 1.63335 0.266667 0.666687 1V10.7667C0.666687 10.9333 0.833354 11.1 1.00002 11.1C1.06669 11.1 1.10002 11.0667 1.16669 11.0667C2.06669 10.6333 3.36669 10.3333 4.33335 10.3333C5.63335 10.3333 7.03335 10.6 8.00002 11.3333C8.90002 10.7667 10.5334 10.3333 11.6667 10.3333C12.7667 10.3333 13.9 10.5333 14.8334 11.0333C14.9 11.0667 14.9334 11.0667 15 11.0667C15.1667 11.0667 15.3334 10.9 15.3334 10.7333V1C14.9334 0.7 14.5 0.5 14 0.333333ZM14 9.33333C13.2667 9.1 12.4667 9 11.6667 9C10.5334 9 8.90002 9.43333 8.00002 10V2.33333C8.90002 1.76667 10.5334 1.33333 11.6667 1.33333C12.4667 1.33333 13.2667 1.43333 14 1.66667V9.33333Z" fill="#00008C"/>
<g id="Group_3">
<path id="Vector_2" d="M11.6667 4C12.2534 4 12.82 4.06 13.3334 4.17333V3.16C12.8067 3.06 12.24 3 11.6667 3C10.5334 3 9.50669 3.19333 8.66669 3.55333V4.66C9.42002 4.23333 10.4667 4 11.6667 4Z" fill="#00008C"/>
<path id="Vector_3" d="M8.66669 5.32677V6.43344C9.42002 6.00677 10.4667 5.77344 11.6667 5.77344C12.2534 5.77344 12.82 5.83344 13.3334 5.94677V4.93344C12.8067 4.83344 12.24 4.77344 11.6667 4.77344C10.5334 4.77344 9.50669 4.97344 8.66669 5.32677Z" fill="#00008C"/>
<path id="Vector_4" d="M11.6667 6.55322C10.5334 6.55322 9.50669 6.74656 8.66669 7.10656V8.21322C9.42002 7.78656 10.4667 7.55322 11.6667 7.55322C12.2534 7.55322 12.82 7.61322 13.3334 7.72656V6.71322C12.8067 6.60656 12.24 6.55322 11.6667 6.55322Z" fill="#00008C"/>
</g>
</g>
</g>
</svg>
