<svg width="16" height="16" viewBox="0 0 16 16" fill="none" xmlns="http://www.w3.org/2000/svg">
<g id="videogame_asset" clip-path="url(#clip0_48_988)">
<path id="Vector" d="M14 4H2.00002C1.26669 4 0.666687 4.6 0.666687 5.33333V10.6667C0.666687 11.4 1.26669 12 2.00002 12H14C14.7334 12 15.3334 11.4 15.3334 10.6667V5.33333C15.3334 4.6 14.7334 4 14 4ZM14 10.6667H2.00002V5.33333H14V10.6667ZM4.00002 10H5.33335V8.66667H6.66669V7.33333H5.33335V6H4.00002V7.33333H2.66669V8.66667H4.00002V10Z" fill="#00008C"/>
<path id="Vector_2" d="M9.66669 10C10.219 10 10.6667 9.55228 10.6667 9C10.6667 8.44772 10.219 8 9.66669 8C9.1144 8 8.66669 8.44772 8.66669 9C8.66669 9.55228 9.1144 10 9.66669 10Z" fill="#00008C"/>
<path id="Vector_3" d="M12.3333 8C12.8856 8 13.3333 7.55228 13.3333 7C13.3333 6.44772 12.8856 6 12.3333 6C11.781 6 11.3333 6.44772 11.3333 7C11.3333 7.55228 11.781 8 12.3333 8Z" fill="#00008C"/>
</g>
<defs>
<clipPath id="clip0_48_988">
<rect width="16" height="16" fill="white"/>
</clipPath>
</defs>
</svg>
