<svg width="19" height="18" viewBox="0 0 19 18" fill="none" xmlns="http://www.w3.org/2000/svg">
<g id="Group">
<g id="Group_2">
<path id="Vector" d="M0.5 8H8.5V0H0.5V8ZM2.5 2H6.5V6H2.5V2Z" fill="black"/>
<path id="Vector_2" d="M0.5 18H8.5V10H0.5V18ZM2.5 12H6.5V16H2.5V12Z" fill="black"/>
<path id="Vector_3" d="M10.5 0V8H18.5V0H10.5ZM16.5 6H12.5V2H16.5V6Z" fill="black"/>
<path id="Vector_4" d="M18.5 16H16.5V18H18.5V16Z" fill="black"/>
<path id="Vector_5" d="M12.5 10H10.5V12H12.5V10Z" fill="black"/>
<path id="Vector_6" d="M14.5 12H12.5V14H14.5V12Z" fill="black"/>
<path id="Vector_7" d="M12.5 14H10.5V16H12.5V14Z" fill="black"/>
<path id="Vector_8" d="M14.5 16H12.5V18H14.5V16Z" fill="black"/>
<path id="Vector_9" d="M16.5 14H14.5V16H16.5V14Z" fill="black"/>
<path id="Vector_10" d="M16.5 10H14.5V12H16.5V10Z" fill="black"/>
<path id="Vector_11" d="M18.5 12H16.5V14H18.5V12Z" fill="black"/>
</g>
</g>
</svg>
